<?xml version="1.0" encoding="UTF-8"?>
<svg xmlns="http://www.w3.org/2000/svg" viewBox="0 0 1400 520" width="1400" height="520">
  <title>BPMN Bank20 - standard and variant examples</title>
  <defs>
    <marker id="arr" markerWidth="8" markerHeight="8" refX="7" refY="4" orient="auto">
      <path d="M0,0 L8,4 L0,8 Z" fill="#1f2937"/>
    </marker>
  </defs>

  <rect width="100%" height="100%" fill="#f8fafc"/>
  <text x="700" y="32" text-anchor="middle" font-family="Arial, sans-serif" font-size="18" font-weight="700" fill="#0f172a">
    BPMN Bank20 - Quy trinh chuan va quy trinh co bien the
  </text>
  <text x="700" y="54" text-anchor="middle" font-family="Arial, sans-serif" font-size="12" fill="#475569">
    Minh hoa 3 luong trong catalog: Chuan (P03), Bien the bo TSDB (P04), Bien the cham diem 2 lan (P17)
  </text>

  <!-- Row 1: P03 standard -->
  <rect x="24" y="80" width="1352" height="126" rx="8" fill="#ffffff" stroke="#cbd5e1"/>
  <text x="42" y="104" font-family="Arial, sans-serif" font-size="13" font-weight="700" fill="#0f766e">Chuan - P03 (LEND_COLL)</text>

  <circle cx="70" cy="146" r="12" fill="#fff" stroke="#1f2937" stroke-width="2"/>
  <line x1="82" y1="146" x2="104" y2="146" stroke="#1f2937" stroke-width="1.5" marker-end="url(#arr)"/>

  <g font-family="Arial, sans-serif" font-size="11" fill="#111827">
    <rect x="104" y="118" width="160" height="56" rx="7" fill="#e2e8f0" stroke="#334155"/>
    <text x="184" y="144" text-anchor="middle">LoanApplicationProcessing</text>
    <line x1="264" y1="146" x2="286" y2="146" stroke="#1f2937" stroke-width="1.5" marker-end="url(#arr)"/>

    <rect x="286" y="118" width="148" height="56" rx="7" fill="#e2e8f0" stroke="#334155"/>
    <text x="360" y="144" text-anchor="middle">CustomerIdentification</text>
    <line x1="434" y1="146" x2="456" y2="146" stroke="#1f2937" stroke-width="1.5" marker-end="url(#arr)"/>

    <rect x="456" y="118" width="112" height="56" rx="7" fill="#e2e8f0" stroke="#334155"/>
    <text x="512" y="144" text-anchor="middle">CreditScoring</text>
    <line x1="568" y1="146" x2="590" y2="146" stroke="#1f2937" stroke-width="1.5" marker-end="url(#arr)"/>

    <rect x="590" y="118" width="112" height="56" rx="7" fill="#e2e8f0" stroke="#334155"/>
    <text x="646" y="144" text-anchor="middle">CreditApproval</text>
    <line x1="702" y1="146" x2="724" y2="146" stroke="#1f2937" stroke-width="1.5" marker-end="url(#arr)"/>

    <rect x="724" y="118" width="124" height="56" rx="7" fill="#dcfce7" stroke="#166534"/>
    <text x="786" y="144" text-anchor="middle">CollateralValuation</text>
    <line x1="848" y1="146" x2="870" y2="146" stroke="#1f2937" stroke-width="1.5" marker-end="url(#arr)"/>

    <rect x="870" y="118" width="112" height="56" rx="7" fill="#fee2e2" stroke="#991b1b"/>
    <text x="926" y="144" text-anchor="middle">Disbursement</text>
  </g>
  <line x1="982" y1="146" x2="1004" y2="146" stroke="#1f2937" stroke-width="1.5" marker-end="url(#arr)"/>
  <circle cx="1020" cy="146" r="12" fill="#fff" stroke="#1f2937" stroke-width="2"/>
  <circle cx="1020" cy="146" r="8" fill="none" stroke="#1f2937" stroke-width="2"/>

  <!-- Row 2: P04 variant -->
  <rect x="24" y="220" width="1352" height="126" rx="8" fill="#ffffff" stroke="#cbd5e1"/>
  <text x="42" y="244" font-family="Arial, sans-serif" font-size="13" font-weight="700" fill="#7c2d12">Bien the A - P04 (LEND_NOCOLL)</text>
  <text x="1266" y="244" text-anchor="end" font-family="Arial, sans-serif" font-size="11" fill="#7c2d12">Khac biet: bo CollateralValuation</text>

  <circle cx="70" cy="286" r="12" fill="#fff" stroke="#1f2937" stroke-width="2"/>
  <line x1="82" y1="286" x2="104" y2="286" stroke="#1f2937" stroke-width="1.5" marker-end="url(#arr)"/>
  <g font-family="Arial, sans-serif" font-size="11" fill="#111827">
    <rect x="104" y="258" width="160" height="56" rx="7" fill="#e2e8f0" stroke="#334155"/>
    <text x="184" y="284" text-anchor="middle">LoanApplicationProcessing</text>
    <line x1="264" y1="286" x2="286" y2="286" stroke="#1f2937" stroke-width="1.5" marker-end="url(#arr)"/>

    <rect x="286" y="258" width="148" height="56" rx="7" fill="#e2e8f0" stroke="#334155"/>
    <text x="360" y="284" text-anchor="middle">CustomerIdentification</text>
    <line x1="434" y1="286" x2="456" y2="286" stroke="#1f2937" stroke-width="1.5" marker-end="url(#arr)"/>

    <rect x="456" y="258" width="112" height="56" rx="7" fill="#e2e8f0" stroke="#334155"/>
    <text x="512" y="284" text-anchor="middle">CreditScoring</text>
    <line x1="568" y1="286" x2="590" y2="286" stroke="#1f2937" stroke-width="1.5" marker-end="url(#arr)"/>

    <rect x="590" y="258" width="112" height="56" rx="7" fill="#e2e8f0" stroke="#334155"/>
    <text x="646" y="284" text-anchor="middle">CreditApproval</text>
    <line x1="702" y1="286" x2="724" y2="286" stroke="#1f2937" stroke-width="1.5" marker-end="url(#arr)"/>

    <rect x="724" y="258" width="112" height="56" rx="7" fill="#fee2e2" stroke="#991b1b"/>
    <text x="780" y="284" text-anchor="middle">Disbursement</text>
  </g>
  <line x1="836" y1="286" x2="858" y2="286" stroke="#1f2937" stroke-width="1.5" marker-end="url(#arr)"/>
  <circle cx="874" cy="286" r="12" fill="#fff" stroke="#1f2937" stroke-width="2"/>
  <circle cx="874" cy="286" r="8" fill="none" stroke="#1f2937" stroke-width="2"/>

  <!-- Row 3: P17 variant -->
  <rect x="24" y="360" width="1352" height="126" rx="8" fill="#ffffff" stroke="#cbd5e1"/>
  <text x="42" y="384" font-family="Arial, sans-serif" font-size="13" font-weight="700" fill="#7c2d12">Bien the B - P17 (LEND_RESCORE)</text>
  <text x="1266" y="384" text-anchor="end" font-family="Arial, sans-serif" font-size="11" fill="#7c2d12">Khac biet: lap CreditScoring hai lan</text>

  <circle cx="70" cy="426" r="12" fill="#fff" stroke="#1f2937" stroke-width="2"/>
  <line x1="82" y1="426" x2="104" y2="426" stroke="#1f2937" stroke-width="1.5" marker-end="url(#arr)"/>
  <g font-family="Arial, sans-serif" font-size="11" fill="#111827">
    <rect x="104" y="398" width="160" height="56" rx="7" fill="#e2e8f0" stroke="#334155"/>
    <text x="184" y="424" text-anchor="middle">LoanApplicationProcessing</text>
    <line x1="264" y1="426" x2="286" y2="426" stroke="#1f2937" stroke-width="1.5" marker-end="url(#arr)"/>

    <rect x="286" y="398" width="148" height="56" rx="7" fill="#e2e8f0" stroke="#334155"/>
    <text x="360" y="424" text-anchor="middle">CustomerIdentification</text>
    <line x1="434" y1="426" x2="456" y2="426" stroke="#1f2937" stroke-width="1.5" marker-end="url(#arr)"/>

    <rect x="456" y="398" width="112" height="56" rx="7" fill="#dbeafe" stroke="#1d4ed8"/>
    <text x="512" y="424" text-anchor="middle">CreditScoring #1</text>
    <line x1="568" y1="426" x2="590" y2="426" stroke="#1f2937" stroke-width="1.5" marker-end="url(#arr)"/>

    <rect x="590" y="398" width="112" height="56" rx="7" fill="#bfdbfe" stroke="#1d4ed8"/>
    <text x="646" y="424" text-anchor="middle">CreditScoring #2</text>
    <line x1="702" y1="426" x2="724" y2="426" stroke="#1f2937" stroke-width="1.5" marker-end="url(#arr)"/>

    <rect x="724" y="398" width="112" height="56" rx="7" fill="#e2e8f0" stroke="#334155"/>
    <text x="780" y="424" text-anchor="middle">CreditApproval</text>
    <line x1="836" y1="426" x2="858" y2="426" stroke="#1f2937" stroke-width="1.5" marker-end="url(#arr)"/>

    <rect x="858" y="398" width="112" height="56" rx="7" fill="#fee2e2" stroke="#991b1b"/>
    <text x="914" y="424" text-anchor="middle">Disbursement</text>
  </g>
  <line x1="970" y1="426" x2="992" y2="426" stroke="#1f2937" stroke-width="1.5" marker-end="url(#arr)"/>
  <circle cx="1008" cy="426" r="12" fill="#fff" stroke="#1f2937" stroke-width="2"/>
  <circle cx="1008" cy="426" r="8" fill="none" stroke="#1f2937" stroke-width="2"/>
</svg>
