<?xml version="1.0" encoding="UTF-8"?>
<svg xmlns="http://www.w3.org/2000/svg" viewBox="0 0 1180 260" width="1180" height="260">
  <title>Petri net - Bank20 workflow template</title>
  <defs>
    <marker id="pn-arrow" markerWidth="7" markerHeight="7" refX="6" refY="3.5" orient="auto">
      <path d="M0,0 L7,3.5 L0,7 Z" fill="#333"/>
    </marker>
  </defs>
  <rect width="100%" height="100%" fill="#fafafa"/>
  <text x="590" y="26" text-anchor="middle" font-family="Arial, sans-serif" font-size="16" font-weight="700" fill="#222">
    Petri net (workflow net) - Bank20 template
  </text>
  <text x="590" y="46" text-anchor="middle" font-family="Arial, sans-serif" font-size="12" fill="#555">
    Place = state, Transition = activity. Vi du ben duoi dung luong P03 (loan with collateral).
  </text>

  <g font-family="Arial, sans-serif" font-size="10" fill="#333">
    <circle cx="44" cy="138" r="12" fill="#fff" stroke="#c62828" stroke-width="2.5"/>
    <text x="44" y="142" text-anchor="middle" font-size="11" font-weight="700" fill="#c62828">1</text>
    <text x="44" y="172" text-anchor="middle" fill="#666">p0</text>
    <line x1="56" y1="138" x2="84" y2="138" stroke="#333" stroke-width="1.2" marker-end="url(#pn-arrow)"/>

    <rect x="84" y="114" width="138" height="48" rx="2" fill="#fff7e6" stroke="#e65100" stroke-width="1.8"/>
    <text x="153" y="141" text-anchor="middle">LoanApplicationProcessing</text>
    <line x1="222" y1="138" x2="244" y2="138" stroke="#333" stroke-width="1.2" marker-end="url(#pn-arrow)"/>

    <circle cx="258" cy="138" r="10" fill="#fff" stroke="#333" stroke-width="2"/><text x="258" y="172" text-anchor="middle" fill="#666">p1</text>
    <line x1="268" y1="138" x2="296" y2="138" stroke="#333" stroke-width="1.2" marker-end="url(#pn-arrow)"/>

    <rect x="296" y="114" width="128" height="48" rx="2" fill="#fff7e6" stroke="#e65100" stroke-width="1.8"/>
    <text x="360" y="141" text-anchor="middle">CustomerIdentification</text>
    <line x1="424" y1="138" x2="446" y2="138" stroke="#333" stroke-width="1.2" marker-end="url(#pn-arrow)"/>

    <circle cx="460" cy="138" r="10" fill="#fff" stroke="#333" stroke-width="2"/><text x="460" y="172" text-anchor="middle" fill="#666">p2</text>
    <line x1="470" y1="138" x2="498" y2="138" stroke="#333" stroke-width="1.2" marker-end="url(#pn-arrow)"/>

    <rect x="498" y="114" width="106" height="48" rx="2" fill="#fff7e6" stroke="#e65100" stroke-width="1.8"/>
    <text x="551" y="141" text-anchor="middle">CreditScoring</text>
    <line x1="604" y1="138" x2="626" y2="138" stroke="#333" stroke-width="1.2" marker-end="url(#pn-arrow)"/>

    <circle cx="640" cy="138" r="10" fill="#fff" stroke="#333" stroke-width="2"/><text x="640" y="172" text-anchor="middle" fill="#666">p3</text>
    <line x1="650" y1="138" x2="678" y2="138" stroke="#333" stroke-width="1.2" marker-end="url(#pn-arrow)"/>

    <rect x="678" y="114" width="98" height="48" rx="2" fill="#fff7e6" stroke="#e65100" stroke-width="1.8"/>
    <text x="727" y="141" text-anchor="middle">CreditApproval</text>
    <line x1="776" y1="138" x2="798" y2="138" stroke="#333" stroke-width="1.2" marker-end="url(#pn-arrow)"/>

    <circle cx="812" cy="138" r="10" fill="#fff" stroke="#333" stroke-width="2"/><text x="812" y="172" text-anchor="middle" fill="#666">p4</text>
    <line x1="822" y1="138" x2="850" y2="138" stroke="#333" stroke-width="1.2" marker-end="url(#pn-arrow)"/>

    <rect x="850" y="114" width="112" height="48" rx="2" fill="#fff7e6" stroke="#e65100" stroke-width="1.8"/>
    <text x="906" y="141" text-anchor="middle">Disbursement</text>
    <line x1="962" y1="138" x2="984" y2="138" stroke="#333" stroke-width="1.2" marker-end="url(#pn-arrow)"/>

    <circle cx="998" cy="138" r="10" fill="#fff" stroke="#333" stroke-width="2"/><text x="998" y="172" text-anchor="middle" fill="#666">p5</text>
  </g>
</svg>
